<?xml version="1.0" encoding="UTF-8" standalone="no"?>
<svg
   xmlns:dc="http://purl.org/dc/elements/1.1/"
   xmlns:cc="http://creativecommons.org/ns#"
   xmlns:rdf="http://www.w3.org/1999/02/22-rdf-syntax-ns#"
   xmlns:svg="http://www.w3.org/2000/svg"
   xmlns="http://www.w3.org/2000/svg"
   xmlns:sodipodi="http://sodipodi.sourceforge.net/DTD/sodipodi-0.dtd"
   xmlns:inkscape="http://www.inkscape.org/namespaces/inkscape"
   width="115.17352"
   height="115.17335"
   viewBox="0 0 11.793769 11.79375"
   preserveAspectRatio="xMinYMin meet"
   version="1.1"
   id="svg18"
   sodipodi:docname="logo.svg"
   inkscape:version="0.92.3 (2405546, 2018-03-11)">
  <metadata
     id="metadata22">
    <rdf:RDF>
      <cc:Work
         rdf:about="">
        <dc:format>image/svg+xml</dc:format>
        <dc:type
           rdf:resource="http://purl.org/dc/dcmitype/StillImage" />
        <dc:title></dc:title>
      </cc:Work>
    </rdf:RDF>
  </metadata>
  <sodipodi:namedview
     pagecolor="#ffffff"
     bordercolor="#666666"
     borderopacity="1"
     objecttolerance="10"
     gridtolerance="10"
     guidetolerance="10"
     inkscape:pageopacity="0"
     inkscape:pageshadow="2"
     inkscape:window-width="1280"
     inkscape:window-height="751"
     id="namedview20"
     showgrid="false"
     inkscape:zoom="2.1360282"
     inkscape:cx="-29.305231"
     inkscape:cy="45.203528"
     inkscape:window-x="0"
     inkscape:window-y="0"
     inkscape:window-maximized="1"
     inkscape:current-layer="svg18"
     fit-margin-top="0"
     fit-margin-left="0"
     fit-margin-right="0"
     fit-margin-bottom="0" />
  <defs
     id="defs12">
    <linearGradient
       x1="39.109913"
       y1="36.654343"
       x2="179.44902"
       y2="177.82648"
       id="a"
       gradientTransform="scale(0.96807444,1.0329784)"
       gradientUnits="userSpaceOnUse">
      <stop
         offset="0%"
         id="stop2"
         style="stop-color:#0000ff;stop-opacity:1" />
      <stop
         stop-color="#FFF"
         offset="100%"
         id="stop4"
         style="stop-color:#ff00ff;stop-opacity:1" />
    </linearGradient>
    <linearGradient
       x1="240.03935"
       y1="198.3614"
       x2="110.83952"
       y2="79.741852"
       id="b"
       gradientTransform="scale(0.9090524,1.1000466)"
       gradientUnits="userSpaceOnUse">
      <stop
         offset="0%"
         id="stop7"
         style="stop-color:#0000ff;stop-opacity:1" />
      <stop
         stop-color="#FFF"
         offset="100%"
         id="stop9"
         style="stop-color:#ff00ff;stop-opacity:1" />
    </linearGradient>
  </defs>
  <g
     id="g824"
     transform="matrix(0.04606941,0,0,0.04606941,0,-1.8107169e-5)">
    <path
       style="fill:url(#a)"
       id="path14"
       d="M 127.783,190.56 C 184.42,267.768 239.847,169.01 239.765,109.62 239.67,39.404 168.5,0.16 127.737,0.16 62.309,0.159 0,54.232 0,128.216 0,210.45 71.425,256 127.737,256 114.994,254.165 72.527,245.066 71.957,147.253 71.572,81.099 93.537,54.668 127.645,66.295 c 0.764,0.283 37.622,14.823 37.622,62.32 0,47.296 -37.484,61.944 -37.484,61.944 z"
       inkscape:connector-curvature="0" />
    <path
       style="fill:url(#b)"
       id="path16"
       d="M 127.717,66.241 C 90.293,53.342 44.448,84.187 44.448,145.967 44.448,246.844 119.201,256 128.263,256 193.691,256 256,201.926 256,127.943 256,45.709 184.575,0.159 128.263,0.159 c 15.597,-2.16 84.065,16.88 84.065,110.458 0,61.026 -51.124,94.248 -84.376,80.054 -0.764,-0.283 -37.623,-14.823 -37.623,-62.32 0,-47.297 37.388,-62.11 37.388,-62.11 z"
       inkscape:connector-curvature="0" />
  </g>
</svg>
